<svg width="161" height="61" viewBox="0 0 161 61" fill="none" xmlns="http://www.w3.org/2000/svg">
<path fill-rule="evenodd" clip-rule="evenodd" d="M92.9204 49.6881C82.4643 57.0645 67.3088 61.0001 54.2602 61.0001C35.964 61.0001 19.4927 54.5233 7.03154 43.751C6.05251 42.9039 6.92972 41.7495 8.10457 42.4091C21.5526 49.898 38.1805 54.4033 55.3568 54.4033C66.9407 54.4033 79.6838 52.1094 91.4009 47.3492C93.171 46.6296 94.6513 48.4587 92.9204 49.6881" fill="#FF9900"/>
<path fill-rule="evenodd" clip-rule="evenodd" d="M97.1786 44.9583C95.8467 43.3284 88.3409 44.1882 84.9719 44.5695C83.9455 44.6892 83.7888 43.8368 84.7133 43.2237C90.6914 39.2087 100.501 40.3676 101.645 41.7134C102.788 43.0667 101.347 52.4501 95.7292 56.9286C94.8673 57.6165 94.0447 57.2501 94.4286 56.338C95.69 53.3323 98.5184 46.5957 97.1786 44.9583" fill="#FF9900"/>
<path fill-rule="evenodd" clip-rule="evenodd" d="M85.239 14.9202V11.0128C85.239 10.4214 85.7075 10.0247 86.2697 10.0247H104.517C105.103 10.0247 105.571 10.4289 105.571 11.0128V14.3588C105.563 14.9202 105.072 15.6538 104.197 16.8141L94.7415 29.7566C98.2551 29.6743 101.964 30.1758 105.15 31.8975C105.868 32.2867 106.063 32.8556 106.118 33.417V37.5865C106.118 38.1554 105.462 38.8216 104.775 38.4773C99.1608 35.6552 91.7041 35.3483 85.4967 38.5072C84.8642 38.8366 84.2006 38.1779 84.2006 37.609V33.6491C84.2006 33.0128 84.2084 31.9274 84.872 30.9618L95.8268 15.9008H86.2931C85.7075 15.9008 85.239 15.5041 85.239 14.9202" fill="black"/>
<path fill-rule="evenodd" clip-rule="evenodd" d="M121.231 9.63574C129.455 9.63574 133.906 16.3707 133.906 24.9343C133.906 33.208 128.987 39.772 121.231 39.772C113.156 39.772 108.76 33.0371 108.76 24.6444C108.76 16.1997 113.21 9.63574 121.231 9.63574V9.63574ZM121.278 15.1739C117.194 15.1739 116.936 20.4815 116.936 23.7895C116.936 27.105 116.882 34.1818 121.231 34.1818C125.526 34.1818 125.729 28.4728 125.729 24.9938C125.729 22.7042 125.628 19.9686 124.903 17.798C124.279 15.9098 123.04 15.1739 121.278 15.1739" fill="black"/>
<path fill-rule="evenodd" clip-rule="evenodd" d="M144.576 39.2828H139.026C138.47 39.2455 138.023 38.8207 138.023 38.299L138.015 11.0965C138.062 10.5971 138.525 10.2096 139.089 10.2096H144.254C144.74 10.2319 145.14 10.545 145.25 10.9698V15.1284H145.352C146.912 11.4095 149.098 9.63574 152.947 9.63574C155.447 9.63574 157.885 10.4928 159.453 12.8404C160.911 15.0166 160.911 18.6759 160.911 21.3067V38.4257C160.848 38.9027 160.386 39.2828 159.837 39.2828H154.248C153.739 39.2455 153.315 38.8878 153.261 38.4257V23.6544C153.261 20.6807 153.621 16.3283 149.772 16.3283C148.416 16.3283 147.17 17.1928 146.551 18.5045C145.767 20.1665 145.665 21.821 145.665 23.6544V38.299C145.657 38.8431 145.171 39.2828 144.576 39.2828" fill="black"/>
<path d="M48.4833 1.15835C49.9014 0.944364 51.5332 0.81061 52.737 1.69337C53.486 2.255 53.7535 3.27151 53.7 4.18127C53.7535 5.67928 53.058 7.28443 51.7207 8.06034C50.5434 8.7024 49.1257 8.75562 47.8147 8.62197C46.9319 8.51512 46.0492 8.03372 45.5944 7.2311C44.5776 4.90366 45.835 1.61313 48.4833 1.15835ZM6.0549 2.84373C6.13504 2.04111 6.85743 1.31882 7.68667 1.34572C13.8666 1.34572 20.0195 1.37234 26.1724 1.34572C26.8412 1.2922 27.5636 1.58633 27.8844 2.17486C28.3391 2.97749 27.9379 3.86024 27.8844 4.68967C27.6973 5.81303 27.7507 7.31133 26.44 7.73921C21.9456 7.87296 17.4512 7.73921 12.9568 7.79273C12.5288 10.6283 12.1276 13.4372 11.6994 16.2461C11.6994 16.3532 11.7263 16.5942 11.7263 16.7008C15.0167 16.6742 18.3072 16.7008 21.5976 16.6742C22.5073 16.6207 23.4702 17.3968 23.3899 18.3596C23.3098 19.3495 23.0957 20.3125 22.962 21.3024C22.8548 21.9711 22.3199 22.5864 21.6243 22.7202C17.9592 22.8004 14.2406 22.6399 10.5759 22.8004C9.9872 26.8399 9.29162 30.8793 8.67627 34.919C8.59623 35.7216 7.95398 36.4171 7.15146 36.4436C5.62676 36.4705 4.10171 36.4705 2.57701 36.4436C1.58721 36.4705 0.784582 35.3734 1.05199 34.4372C2.68434 23.8974 4.36962 13.3841 6.0549 2.84373ZM33.2347 1.39895C34.6259 1.2921 36.0436 1.37234 37.4349 1.34572C38.291 1.2922 39.1471 1.96088 39.2271 2.84373C39.2271 3.53912 39.0398 4.23479 38.9597 4.93027C37.836 12.0999 36.6858 19.2695 35.562 26.439C35.4016 27.5892 35.1073 28.8197 35.4552 29.9969C35.8564 31.1739 37.6486 30.6656 38.0767 31.8961C38.3442 32.886 38.0498 33.9292 37.9696 34.9459C37.8895 36.2834 36.3646 36.5776 35.3214 36.8723C33.0476 37.3001 30.2919 36.9791 28.66 35.1063C27.483 33.7422 27.4026 31.8158 27.6436 30.1039C29.0614 21.0084 30.4792 11.9128 31.924 2.79021C32.0043 2.12134 32.5392 1.50609 33.2347 1.39895ZM45.5674 11.0296C47.012 10.7355 48.5101 10.9763 49.9546 10.8959C50.7841 10.789 51.6668 11.324 51.8005 12.1534C51.9077 12.9023 51.6934 13.6247 51.6131 14.3471C50.5165 21.2224 49.4194 28.0975 48.3494 34.9727C48.2692 35.7488 47.6274 36.5244 46.7979 36.4975C45.3534 36.4975 43.9087 36.5244 42.4375 36.471C41.5278 36.3638 40.859 35.3207 41.0999 34.4377C42.2502 27.2952 43.3472 20.179 44.4974 13.0361C44.551 12.2603 44.7649 11.3507 45.5674 11.0296ZM79.6226 19.9649C79.5957 17.2897 78.8735 14.4808 77.001 12.4743C75.7169 11.0565 73.7907 10.3343 71.9181 10.3608C68.8148 10.254 65.8989 11.7789 63.6251 13.8119C63.1166 14.2133 62.7689 14.8019 62.2073 15.1228C62.2073 14.2397 62.2874 13.3571 62.2605 12.4476C62.2874 11.6181 61.5115 10.8959 60.709 10.8959H57.9802C57.1243 10.8959 56.4287 11.6451 56.3751 12.4742C54.6898 23.175 52.9779 33.8758 51.2924 44.5766C51.0518 45.5663 51.9079 46.583 52.9244 46.5562C54.4224 46.5295 55.9474 46.6632 57.4187 46.4489C58.5958 46.1279 58.5689 44.7636 58.7563 43.7739C59.1842 41.4196 59.4787 39.0655 59.7461 36.6845C65.0162 37.701 71.1424 37.0057 75.0749 33.0195C78.285 29.5153 79.783 24.6731 79.6226 19.9649ZM72.1321 22.6667C71.9717 25.1279 71.0888 27.6159 69.3768 29.4081C67.1565 31.5217 63.7854 31.2272 61.0568 30.5052C61.0036 30.4248 60.9231 30.2642 60.8964 30.1842C61.3243 27.8567 61.5384 25.5025 62.0735 23.2019C63.5716 20.7409 65.3906 18.2527 67.9855 16.8885C68.9486 16.4338 70.2594 16.5408 70.955 17.4236C72.1321 18.8949 72.2391 20.8745 72.1321 22.6667Z" fill="#107BD4" stroke="#107BD4" stroke-width="0.101"/>
</svg>
