<svg width="268" height="101" viewBox="0 0 268 101" fill="none" xmlns="http://www.w3.org/2000/svg">
<path fill-rule="evenodd" clip-rule="evenodd" d="M154.196 82.1471C136.77 94.4408 111.512 101 89.7645 101C59.2716 101 31.8202 90.2055 11.0522 72.2522C9.42052 70.8405 10.8825 68.9165 12.8405 70.0159C35.2533 82.497 62.9658 90.0056 91.592 90.0056C110.898 90.0056 132.136 86.1826 151.664 78.2492C154.614 77.0498 157.081 80.0982 154.196 82.1471" fill="#FF9900"/>
<path fill-rule="evenodd" clip-rule="evenodd" d="M161.293 74.2587C159.073 71.5422 146.564 72.9752 140.949 73.6107C139.239 73.8101 138.977 72.3896 140.518 71.3678C150.481 64.6762 166.83 66.6077 168.736 68.8506C170.642 71.1061 168.24 86.7446 158.877 94.2087C157.441 95.3551 156.07 94.7445 156.71 93.2243C158.812 88.215 163.526 76.9876 161.293 74.2587" fill="#FF9900"/>
<path fill-rule="evenodd" clip-rule="evenodd" d="M141.394 24.1993V17.6871C141.394 16.7015 142.175 16.0403 143.112 16.0403H173.524C174.5 16.0403 175.281 16.714 175.281 17.6871V23.2636C175.268 24.1993 174.448 25.4219 172.99 27.3556L157.231 48.9259C163.087 48.7887 169.269 49.6246 174.578 52.494C175.775 53.1427 176.1 54.0908 176.191 55.0265V61.9754C176.191 62.9236 175.098 64.0339 173.953 63.46C164.597 58.7567 152.169 58.2452 141.824 63.5099C140.77 64.0588 139.664 62.961 139.664 62.0128V55.4132C139.664 54.3528 139.677 52.5439 140.783 50.9345L159.04 25.8336H143.151C142.175 25.8336 141.394 25.1724 141.394 24.1993" fill="black"/>
<path fill-rule="evenodd" clip-rule="evenodd" d="M201.38 15.3879C215.086 15.3879 222.503 26.6125 222.503 40.8849C222.503 54.674 214.306 65.6136 201.38 65.6136C187.921 65.6136 180.594 54.389 180.594 40.4017C180.594 26.3276 188.012 15.3879 201.38 15.3879V15.3879ZM201.458 24.6179C194.651 24.6179 194.222 33.4637 194.222 38.9769C194.222 44.5025 194.131 56.297 201.38 56.297C208.538 56.297 208.876 46.7821 208.876 40.984C208.876 37.1681 208.707 32.6089 207.499 28.9912C206.46 25.8444 204.394 24.6179 201.458 24.6179" fill="black"/>
<path fill-rule="evenodd" clip-rule="evenodd" d="M240.287 64.7983H231.038C230.11 64.7362 229.365 64.0282 229.365 63.1587L229.352 17.8224C229.431 16.9902 230.202 16.3444 231.142 16.3444H239.751C240.561 16.3816 241.227 16.9033 241.41 17.6113V24.5421H241.58C244.179 18.3441 247.824 15.3879 254.238 15.3879C258.406 15.3879 262.468 16.8163 265.081 20.7289C267.511 24.3558 267.511 30.4545 267.511 34.8391V63.3699C267.406 64.1648 266.636 64.7983 265.721 64.7983H256.407C255.558 64.7362 254.852 64.14 254.761 63.3699V38.7517C254.761 33.7957 255.362 26.5419 248.948 26.5419C246.688 26.5419 244.611 27.9827 243.579 30.1688C242.272 32.9387 242.102 35.6961 242.102 38.7517V63.1587C242.089 64.0655 241.279 64.7983 240.287 64.7983" fill="black"/>
<path d="M80.1367 1.26391C82.5001 0.907275 85.2196 0.684358 87.2258 2.15558C88.4741 3.0916 88.92 4.78574 88.8308 6.30197C88.92 8.79858 87.7609 11.4738 85.532 12.7669C83.57 13.837 81.2072 13.9257 79.0223 13.7029C77.551 13.5249 76.0798 12.7225 75.3219 11.3849C73.6272 7.50592 75.7229 2.02186 80.1367 1.26391ZM9.4246 4.0728C9.55816 2.73513 10.7621 1.53134 12.1441 1.57619C22.4437 1.57619 32.6982 1.62054 42.9529 1.57619C44.0675 1.48699 45.2714 1.97718 45.8061 2.95805C46.5639 4.29572 45.8953 5.76694 45.8061 7.14929C45.4943 9.0215 45.5832 11.5186 43.3989 12.2317C35.9084 12.4546 28.4179 12.2317 20.9274 12.3209C20.2142 17.0467 19.5454 21.7281 18.8318 26.4095C18.8318 26.5879 18.8767 26.9896 18.8767 27.1673C24.3606 27.123 29.8445 27.1673 35.3284 27.123C36.8444 27.0338 38.4492 28.3272 38.3155 29.9319C38.1819 31.5816 37.8251 33.1866 37.6024 34.8364C37.4236 35.9508 36.5321 36.9763 35.3729 37.1993C29.2646 37.333 23.0671 37.0655 16.9594 37.333C15.9782 44.0653 14.819 50.7974 13.7934 57.5301C13.66 58.8677 12.5896 60.0268 11.2521 60.071C8.71105 60.1159 6.16937 60.1159 3.62828 60.071C1.97866 60.1159 0.64098 58.2874 1.08665 56.7271C3.80716 39.1613 6.61588 21.6396 9.4246 4.0728ZM54.723 1.6649C57.0417 1.48683 59.4044 1.62054 61.7231 1.57619C63.15 1.48699 64.5767 2.60142 64.7101 4.0728C64.7101 5.23174 64.3979 6.39117 64.2644 7.55027C62.3917 19.4993 60.4746 31.4482 58.6018 43.3971C58.3343 45.3141 57.844 47.3649 58.4237 49.3268C59.0924 51.2884 62.0792 50.4412 62.7928 52.492C63.2387 54.1418 62.748 55.8804 62.6143 57.5749C62.4807 59.8041 59.9393 60.2943 58.2008 60.7854C54.4112 61.4985 49.8185 60.9635 47.0988 57.8422C45.137 55.5688 45.0032 52.3583 45.4048 49.5052C47.7677 34.3463 50.1306 19.1875 52.5385 3.9836C52.6724 2.86885 53.5639 1.84346 54.723 1.6649ZM75.2769 17.7156C77.6844 17.2254 80.1812 17.6267 82.5888 17.4927C83.9711 17.3146 85.4423 18.2061 85.6651 19.5885C85.8438 20.8366 85.4865 22.0406 85.3528 23.2445C83.5251 34.7031 81.6968 46.1613 79.9134 57.6196C79.7797 58.9131 78.7101 60.2057 77.3276 60.1609C74.9202 60.1609 72.5125 60.2057 70.0606 60.1167C68.5445 59.938 67.4298 58.1996 67.8312 56.7279C69.7485 44.8241 71.5766 32.9642 73.4937 21.0597C73.5829 19.7667 73.9395 18.2506 75.2769 17.7156ZM132.034 32.6074C131.989 28.1487 130.786 23.4674 127.665 20.1233C125.525 17.7604 122.314 16.5567 119.194 16.6008C114.021 16.4229 109.162 18.9644 105.372 22.3525C104.525 23.0216 103.945 24.0025 103.009 24.5373C103.009 23.0656 103.143 21.5946 103.098 20.0788C103.143 18.6963 101.85 17.4927 100.512 17.4927H95.9643C94.5379 17.4927 93.3785 18.7413 93.2893 20.1232C90.4804 37.9574 87.6273 55.7914 84.8183 73.6256C84.4173 75.2751 85.8442 76.9695 87.5383 76.9248C90.0349 76.8803 92.5764 77.1032 95.0284 76.7461C96.9903 76.2111 96.9455 73.9372 97.2578 72.2878C97.9709 68.3641 98.4617 64.4407 98.9074 60.4725C107.691 62.1666 117.901 61.0079 124.455 54.3644C129.805 48.5242 132.301 40.4541 132.034 32.6074ZM119.55 37.1102C119.283 41.2121 117.811 45.3586 114.958 48.3454C111.258 51.8681 105.639 51.3773 101.092 50.174C101.003 50.0399 100.869 49.7723 100.824 49.6389C101.538 45.76 101.895 41.8363 102.786 38.0021C105.283 33.9005 108.315 29.7536 112.639 27.4801C114.244 26.7223 116.429 26.9005 117.588 28.3719C119.55 30.824 119.729 34.1233 119.55 37.1102Z" fill="#107BD4" stroke="#107BD4" stroke-width="0.101"/>
</svg>
